<?xml version="1.0" standalone="no"?>
<!DOCTYPE svg PUBLIC "-//W3C//DTD SVG 20010904//EN"
 "http://www.w3.org/TR/2001/REC-SVG-20010904/DTD/svg10.dtd">
<svg version="1.0" xmlns="http://www.w3.org/2000/svg"
 width="260.000000pt" height="260.000000pt" viewBox="0 0 260.000000 260.000000"
 preserveAspectRatio="xMidYMid meet">
<metadata>
Created by potrace 1.11, written by Peter Selinger 2001-2013
</metadata>
<g transform="translate(0.000000,260.000000) scale(0.100000,-0.100000)"
fill="#000000" stroke="none">
<path d="M1135 2529 c-179 -24 -370 -95 -520 -193 -118 -77 -284 -242 -360
-360 -270 -415 -270 -947 0 -1362 76 -118 242 -283 360 -360 413 -268 947
-268 1360 0 118 77 284 242 360 360 270 415 270 947 0 1362 -73 112 -242 283
-350 354 -142 92 -285 151 -450 185 -97 20 -304 27 -400 14z m436 -112 c429
-111 742 -429 851 -865 32 -126 32 -388 0 -514 -78 -313 -260 -564 -526 -729
-98 -60 -201 -103 -325 -137 -86 -23 -114 -25 -276 -25 -162 0 -190 2 -276 25
-313 84 -555 265 -719 538 -160 265 -202 604 -114 907 124 427 497 754 939
823 108 16 338 5 446 -23z"/>
<path d="M757 1846 c-97 -27 -176 -105 -217 -213 -28 -73 -38 -227 -21 -322
30 -166 145 -264 311 -265 99 -1 157 21 211 82 l42 47 -7 -90 c-8 -117 -20
-158 -57 -199 -43 -50 -101 -69 -193 -64 -85 4 -121 23 -146 76 -15 31 -17 32
-83 32 l-67 0 6 -27 c30 -133 126 -195 304 -196 52 -1 114 4 137 11 62 18 134
71 165 122 54 89 58 125 58 582 l0 418 -60 0 -60 0 0 -52 0 -52 -42 41 c-24
23 -60 49 -81 58 -53 22 -143 27 -200 11z m224 -141 c26 -18 53 -50 68 -80 24
-45 26 -61 26 -165 0 -99 -3 -122 -23 -165 -43 -92 -105 -134 -200 -135 -67 0
-109 18 -149 63 -47 53 -58 97 -58 222 1 92 5 118 23 160 46 101 101 137 204
132 56 -2 74 -8 109 -32z"/>
<path d="M1640 1853 c-138 -23 -213 -93 -234 -220 l-5 -33 64 0 c60 0 65 2 65
21 0 37 38 86 80 103 56 22 164 21 217 -3 70 -32 95 -115 51 -165 -21 -24 -37
-28 -168 -45 -162 -22 -197 -32 -257 -72 -57 -40 -87 -104 -87 -189 1 -241
292 -321 500 -137 l33 28 10 -39 c19 -70 72 -100 156 -88 l45 7 0 55 0 54 -34
0 c-19 0 -38 6 -43 13 -4 6 -10 138 -13 293 l-5 281 -28 36 c-59 77 -215 122
-347 100z m245 -581 c-10 -41 -74 -100 -131 -122 -142 -53 -264 3 -251 116 9
81 46 105 212 134 65 11 129 27 144 34 l26 14 3 -76 c2 -42 0 -87 -3 -100z"/>
</g>
</svg>
